<?xml version="1.0" encoding="UTF-8"?>
<svg id="b" data-name="Layer 2" xmlns="http://www.w3.org/2000/svg" width="243.634" height="145.074" xmlns:xlink="http://www.w3.org/1999/xlink" viewBox="0 0 243.634 145.074">
  <defs>
    <linearGradient id="d" x1="66.785" y1="12.394" x2="242.385" y2="147.694" gradientTransform="translate(0 150.4) scale(1 -1)" gradientUnits="userSpaceOnUse">
      <stop offset="0" stop-color="#0f2c56"/>
      <stop offset=".2" stop-color="#2f584a"/>
      <stop offset=".5" stop-color="#4e8140"/>
      <stop offset=".6" stop-color="#578d3c"/>
      <stop offset=".8" stop-color="#609939"/>
      <stop offset="1" stop-color="#649e38"/>
    </linearGradient>
  </defs>
  <g id="c" data-name="Layer 1">
    <g>
      <path d="M86.034,127.3c.3-2.4,3.9-5.8,5.5-7.6,3.7-4.4,8-8.3,12.1-12.4,8.1-8.1,16.6-15.7,25-23.5,2.2-2,4.4-3.9,6.6-5.8,4.7-4,9.5-8,14.3-11.8,9.7-7.7,19.7-15,29.8-22,5.2-3.6,10.4-7.2,15.7-10.7.5-.3,2-1.6,1-2.2s-3.3,1.5-3.9,1.7c-4,1.7-8.1,3.4-12,5.2-7.9,3.7-15.5,7.7-23,12.1-15.2,8.9-29.5,19.1-43.4,29.9-1,.8-2,1.5-3,2.3l30.3-45.7,8.4-12.4L166.334.4c23.6,0,47.3-.2,70.9-.3,2.4,0,4.7.2,6.4,2,0,0-7.4,10.7-8.1,11.9-2.6,4.3-4.8,8.8-6.6,13.5-3.1,8.1-4.4,16.7-6.5,25.1-2.4,9.6-4.7,18.5-9.5,27.3s-17,21.6-29.7,27.8c-12.1,6-25.3,9.5-38.8,10.5-8.3.6-16.6,0-24.9-.2s-15.7.4-23.5,4.4c-1.7.8-3.3,1.7-5,2.6-1.4.7-3.2,2.4-4.9,2.1l-.1.2Z" fill="url(#d)"/>
      <g>
        <g>
          <path d="M101.034,0c-3.4,0-6.1,3.3-6.1,7l.7,83.3L150.134,10.3c2.6-3.8,4.6-6.5,6.6-10.3h-55.7Z" fill="#0f2c56"/>
          <path d="M35.534,22.3c-1.3,1.4-2.2,3.2-3.2,4.8l-3.7,5.9-8.4,13.4c-1.8,2.9-3.6,5.7-5.4,8.6-3.2,5-8.2,10-8.3,16.2l-.7,39.4C.134,111.3-.466,118.8.234,123.2s.9,4.5,2.8,5.5c4.3,2.2,11.3,1.5,15.9,1.3,3.9-.2,3.2-3.6,3.8-6.5.4-2.5,1.1-4.9,2.2-7.2,5.2-11.3,18.5-17.3,30.2-13.3,9.2,3.2,15.2,9.6,17.4,20.3l15.7-22V18.8c0-.7,0-.5-.5-.5h-1.2c-6.9,0-13.8,0-20.7-.1s-13.4-.4-20,.2-7,1.2-9.8,3.5c-.2.2-.4.3-.5.5v-.1ZM75.234,30.9l.2,37.1-52.9-.2,22.6-36.7h30.2l-.1-.2Z" fill="#0f2c56"/>
          <path d="M58.834,112.5c-8.6-6.8-19.3-4.7-25.4,3.5-7.2,9.6-3.7,21.9,5.4,26.8,6.1,3.3,13.2,3.1,19.4-1.2,9.7-6.9,9.8-21.9.6-29.1h0ZM48.634,134.4c-4.5.6-8-2.4-8.7-5.7-1-4.7,1.8-8.9,6.9-9.5,4.8-.5,8.2,3.3,8.5,6.9.4,4.4-2.9,7.9-6.7,8.4v-.1Z" fill="#0f2c56"/>
        </g>
        <g>
          <path d="M101.034,0c-3.4,0-6.1,3.3-6.1,7l.7,83.3L150.134,10.3c2.6-3.8,4.6-6.5,6.6-10.3h-55.7Z" fill="#00216b"/>
          <path d="M35.534,22.3c-1.3,1.4-2.2,3.2-3.2,4.8l-3.7,5.9-8.4,13.4c-1.8,2.9-3.6,5.7-5.4,8.6-3.2,5-8.2,10-8.3,16.2l-.7,39.4C.134,111.3-.466,118.8.234,123.2s.9,4.5,2.8,5.5c4.3,2.2,11.3,1.5,15.9,1.3,3.9-.2,3.2-3.6,3.8-6.5.4-2.5,1.1-4.9,2.2-7.2,5.2-11.3,18.5-17.3,30.2-13.3,9.2,3.2,15.2,9.6,17.4,20.3l15.7-22V18.8c0-.7,0-.5-.5-.5h-1.2c-6.9,0-13.8,0-20.7-.1s-13.4-.4-20,.2-7,1.2-9.8,3.5c-.2.2-.4.3-.5.5v-.1ZM75.234,30.9l.2,37.1-52.9-.2,22.6-36.7h30.2l-.1-.2Z" fill="#00216b"/>
          <path d="M58.834,112.5c-8.6-6.8-19.3-4.7-25.4,3.5-7.2,9.6-3.7,21.9,5.4,26.8,6.1,3.3,13.2,3.1,19.4-1.2,9.7-6.9,9.8-21.9.6-29.1h0ZM48.634,134.4c-4.5.6-8-2.4-8.7-5.7-1-4.7,1.8-8.9,6.9-9.5,4.8-.5,8.2,3.3,8.5,6.9.4,4.4-2.9,7.9-6.7,8.4v-.1Z" fill="#00216b"/>
        </g>
      </g>
    </g>
  </g>
</svg>
