<?xml version="1.0" encoding="UTF-8"?>
<svg id="b" data-name="Layer 2" xmlns="http://www.w3.org/2000/svg" width="234.949" height="66.582" viewBox="0 0 234.949 66.582">
  <g id="c" data-name="Layer 1">
    <g isolation="isolate">
      <g isolation="isolate">
        <path d="M7.577,27.252L0,5.349h5.03l4.648,16.364,4.266-14.709c.254-1.103.976-1.655,2.165-1.655h3.248l-7.45,21.903h-4.33Z" fill="#00216b"/>
        <path d="M20.693,5.349h2.292c.594,0,1.103.213,1.528.637.424.425.637.935.637,1.528v1.337h-4.457v-3.502ZM20.693,10.315h2.292c.594,0,1.103.213,1.528.637.424.425.637.934.637,1.528v14.771h-4.457V10.315Z" fill="#00216b"/>
        <path d="M37.885,22.031h3.184c-.468,1.782-1.359,3.142-2.674,4.074-1.316.978-2.972,1.465-4.966,1.465-2.419,0-4.309-.785-5.667-2.355-1.359-1.528-2.037-3.714-2.037-6.559,0-2.716.657-4.839,1.974-6.367,1.358-1.57,3.247-2.355,5.667-2.355,2.547,0,4.521.764,5.921,2.292,1.358,1.57,2.038,3.757,2.038,6.558v.701c0,.213-.022.36-.064.445h-11.015c.042,1.316.36,2.292.955,2.929.551.68,1.379,1.019,2.483,1.019.721,0,1.337-.147,1.846-.445.127-.042.244-.116.35-.223.105-.105.223-.223.351-.351.042-.127.201-.296.478-.509.275-.212.668-.318,1.178-.318ZM30.244,17.064h6.495c-.085-1.146-.382-1.995-.892-2.547-.552-.594-1.337-.892-2.356-.892-.934,0-1.698.298-2.292.892s-.913,1.443-.955,2.547Z" fill="#00216b"/>
        <path d="M49.537,27.252c-1.401.085-2.919.063-4.552-.063-1.635-.128-2.452-1.167-2.452-3.12V5.349h2.292c.551,0,1.04.213,1.464.637.424.425.637.935.637,1.528v2.865h2.61v.892c0,.637-.213,1.157-.637,1.56-.425.404-.934.605-1.528.605h-.446v9.423c0,.723.424,1.083,1.273,1.083h1.337v3.311Z" fill="#00216b"/>
        <path d="M64.691,27.252h-2.229c-.637,0-1.157-.201-1.56-.604-.404-.403-.605-.924-.605-1.561v-8.659c0-1.019-.308-1.761-.923-2.229-.616-.467-1.305-.7-2.069-.7s-1.443.233-2.037.7c-.595.468-.892,1.21-.892,2.229v10.824h-4.457v-9.933c0-2.887.753-4.817,2.26-5.794,1.506-.977,3.173-1.507,4.999-1.592,1.867,0,3.586.488,5.157,1.464,1.57.978,2.356,2.951,2.356,5.922v9.933Z" fill="#00216b"/>
        <path d="M76.215,26.552c-.892.468-1.836.753-2.833.859-.998.105-1.878.159-2.642.159-1.528,0-2.865-.414-4.012-1.241-1.146-.828-1.719-2.197-1.719-4.107,0-1.782.519-3.056,1.56-3.82,1.04-.764,2.366-1.273,3.979-1.528.212,0,.467-.031.764-.095.296-.064.637-.117,1.019-.159,1.867-.255,2.801-.807,2.801-1.656,0-.637-.329-1.05-.987-1.241-.659-.191-1.264-.286-1.814-.286-.595,0-1.125.085-1.592.254-.468.171-.807.489-1.019.955h-4.266c.169-1.314.764-2.397,1.783-3.247,1.146-.976,2.779-1.464,4.902-1.464,2.377,0,4.16.403,5.349,1.209,1.23.85,1.847,2.038,1.847,3.566v5.794c0,1.698-.309,3.024-.923,3.979-.616.955-1.348,1.646-2.197,2.069ZM75.197,18.72c-.595.298-1.423.573-2.483.828l-1.464.318c-.764.213-1.316.488-1.656.827-.297.468-.445.935-.445,1.401,0,.637.191,1.146.573,1.528.382.34.933.509,1.656.509,1.188,0,2.122-.339,2.801-1.019.679-.679,1.019-1.612,1.019-2.802v-1.592Z" fill="#00216b"/>
        <path d="M94.744,27.252h-4.394v-10.824c0-1.019-.308-1.761-.923-2.229-.616-.467-1.305-.7-2.069-.7s-1.443.233-2.037.7c-.595.468-.892,1.21-.892,2.229v10.824h-4.457v-9.933c0-2.887.753-4.817,2.26-5.794,1.506-.977,3.173-1.507,4.999-1.592.976,0,1.931.106,2.865.318.933.213,1.783.637,2.547,1.273.637-.552,1.39-.944,2.26-1.179.87-.232,1.772-.371,2.706-.413,1.867,0,3.586.488,5.157,1.464,1.57.978,2.356,2.951,2.356,5.922v9.933h-2.229c-.637,0-1.157-.201-1.56-.604-.404-.403-.605-.924-.605-1.561v-8.659c0-1.019-.308-1.761-.923-2.229-.616-.467-1.306-.7-2.069-.7s-1.455.233-2.069.7c-.616.468-.923,1.21-.923,2.229v10.824Z" fill="#00216b"/>
        <path d="M113.654,27.252V7.641c0-.637.223-1.178.668-1.623.446-.446.987-.669,1.624-.669h2.229v17.828h10.697v4.075h-15.218Z" fill="#00216b"/>
        <path d="M131.673,25.724c-.891-.764-1.528-1.793-1.91-3.088-.382-1.294-.573-2.643-.573-4.043,0-1.146.159-2.292.478-3.438s.816-2.102,1.496-2.865c1.104-1.273,2.525-2.026,4.266-2.261,1.74-.232,3.311-.095,4.711.414,1.613.637,2.802,1.741,3.566,3.312.721,1.4,1.083,3.035,1.083,4.902,0,1.359-.149,2.526-.446,3.502-.297.977-.68,1.805-1.146,2.483-1.019,1.4-2.314,2.271-3.884,2.61-1.401.382-2.812.414-4.234.096-1.423-.318-2.558-.859-3.407-1.624ZM134.729,14.518c-.891.977-1.295,2.431-1.209,4.361.084,1.933.446,3.279,1.083,4.043.254.341.7.627,1.337.86s1.283.254,1.942.063c.658-.191,1.242-.669,1.751-1.433.509-.765.785-1.995.828-3.693,0-1.528-.245-2.674-.732-3.438-.489-.764-1.051-1.251-1.688-1.464-.637-.212-1.273-.223-1.91-.032-.637.191-1.104.436-1.401.732Z" fill="#00216b"/>
        <path d="M156.696,26.233v-1.083c-.764,1.189-1.793,1.933-3.088,2.229-1.295.297-2.579.191-3.852-.318-1.273-.509-2.367-1.453-3.279-2.833-.913-1.379-1.369-3.193-1.369-5.444,0-2.631.604-4.764,1.814-6.398,1.21-1.634,3.152-2.451,5.826-2.451,2.037,0,3.926.552,5.667,1.655,1.74,1.104,2.611,3.142,2.611,6.112v8.978c0,2.971-.871,4.998-2.611,6.081-1.741,1.082-3.629,1.623-5.667,1.623-3.906,0-6.326-1.825-7.259-5.476h4.648c.339.594.86,1.051,1.56,1.369s1.401.403,2.101.255c.701-.149,1.337-.563,1.91-1.242.573-.679.901-1.698.987-3.056ZM149.438,18.911c0,2.929.849,4.553,2.547,4.871,1.697.318,2.95-.074,3.756-1.179.382-.466.658-1.198.828-2.196.169-.997.18-1.983.032-2.961-.149-.976-.5-1.847-1.051-2.61-.552-.764-1.359-1.146-2.419-1.146-1.443,0-2.419.531-2.929,1.592-.51,1.062-.764,2.271-.764,3.63Z" fill="#00216b"/>
        <path d="M162.172,5.349h2.292c.594,0,1.103.213,1.528.637.424.425.637.935.637,1.528v1.337h-4.457v-3.502ZM162.172,10.315h2.292c.594,0,1.103.213,1.528.637.424.425.637.934.637,1.528v14.771h-4.457V10.315Z" fill="#00216b"/>
        <path d="M167.203,21.648h4.33c.042.85.36,1.486.955,1.91.637.425,1.485.637,2.547.637.764,0,1.421-.147,1.974-.445.509-.297.764-.7.764-1.21,0-.764-.892-1.337-2.674-1.719-.764-.128-1.337-.255-1.719-.382-2.25-.552-3.756-1.21-4.521-1.975-.85-.764-1.273-1.782-1.273-3.056,0-1.613.615-2.95,1.847-4.012,1.273-.976,2.929-1.464,4.966-1.464,2.207,0,3.968.488,5.285,1.464,1.23,1.062,1.888,2.441,1.974,4.139h-2.738c-.807,0-1.422-.36-1.846-1.082-.17-.169-.34-.34-.51-.51-.509-.382-1.209-.573-2.101-.573-.85,0-1.486.128-1.91.383-.382.254-.573.637-.573,1.146,0,.68,1.103,1.253,3.311,1.72.255.085.478.148.669.19.191.043.371.063.541.063,2.165.553,3.671,1.189,4.521,1.91.806.765,1.21,1.783,1.21,3.057,0,1.868-.68,3.311-2.038,4.33-1.273.934-3.184,1.4-5.73,1.4-2.419,0-4.224-.487-5.412-1.465-1.231-.976-1.846-2.397-1.846-4.266v-.191Z" fill="#00216b"/>
        <path d="M190.442,27.252c-1.401.085-2.919.063-4.552-.063-1.635-.128-2.452-1.167-2.452-3.12V5.349h2.292c.551,0,1.04.213,1.464.637.424.425.637.935.637,1.528v2.865h2.61v.892c0,.637-.213,1.157-.637,1.56-.425.404-.934.605-1.528.605h-.446v9.423c0,.723.424,1.083,1.273,1.083h1.337v3.311Z" fill="#00216b"/>
        <path d="M191.207,5.349h2.292c.594,0,1.103.213,1.528.637.424.425.637.935.637,1.528v1.337h-4.457v-3.502ZM191.207,10.315h2.292c.594,0,1.103.213,1.528.637.424.425.637.934.637,1.528v14.771h-4.457V10.315Z" fill="#00216b"/>
        <path d="M208.398,22.031h3.184c-.468,1.782-1.359,3.142-2.674,4.074-1.316.978-2.972,1.465-4.966,1.465-2.419,0-4.309-.785-5.667-2.355-1.359-1.528-2.037-3.714-2.037-6.559,0-2.716.657-4.839,1.974-6.367,1.358-1.57,3.247-2.355,5.667-2.355,2.547,0,4.521.764,5.921,2.292.764.934,1.315,2.017,1.655,3.247h-4.457c-.213-.424-.425-.742-.637-.955-.552-.594-1.337-.892-2.356-.892-.934,0-1.698.298-2.292.892-.764.85-1.146,2.25-1.146,4.202s.382,3.333,1.146,4.139c.551.68,1.379,1.019,2.483,1.019.721,0,1.337-.147,1.846-.445.127-.042.244-.116.35-.223.105-.105.223-.223.351-.351.084-.127.254-.296.509-.509.254-.212.637-.318,1.146-.318Z" fill="#00216b"/>
        <path d="M211.9,21.648h4.33c.042.85.36,1.486.955,1.91.637.425,1.485.637,2.547.637.764,0,1.421-.147,1.974-.445.509-.297.764-.7.764-1.21,0-.764-.892-1.337-2.674-1.719-.764-.128-1.337-.255-1.719-.382-2.25-.552-3.756-1.21-4.521-1.975-.85-.764-1.273-1.782-1.273-3.056,0-1.613.615-2.95,1.847-4.012,1.273-.976,2.929-1.464,4.966-1.464,2.207,0,3.968.488,5.285,1.464,1.23,1.062,1.888,2.441,1.974,4.139h-2.738c-.807,0-1.422-.36-1.846-1.082-.17-.169-.34-.34-.51-.51-.509-.382-1.209-.573-2.101-.573-.85,0-1.486.128-1.91.383-.382.254-.573.637-.573,1.146,0,.68,1.103,1.253,3.311,1.72.255.085.478.148.669.19.191.043.371.063.541.063,2.165.553,3.671,1.189,4.521,1.91.806.765,1.21,1.783,1.21,3.057,0,1.868-.68,3.311-2.038,4.33-1.273.934-3.184,1.4-5.73,1.4-2.419,0-4.224-.487-5.412-1.465-1.231-.976-1.846-2.397-1.846-4.266v-.191Z" fill="#00216b"/>
      </g>
      <g isolation="isolate">
        <path d="M23.947,51.874c-.213,2.547-1.168,4.543-2.865,5.985-1.741,1.4-4.033,2.102-6.876,2.102-3.311,0-5.837-.997-7.577-2.993-1.741-1.91-2.61-4.732-2.61-8.468,0-3.82.891-6.686,2.674-8.596,1.825-1.995,4.457-2.993,7.896-2.993,2.802,0,5.03.7,6.686,2.102,1.57,1.358,2.461,3.269,2.674,5.73h-2.738c-1.019,0-1.741-.446-2.165-1.337-.297-.552-.659-1.04-1.083-1.465-.85-.637-1.974-.955-3.375-.955-1.953,0-3.46.637-4.521,1.91-1.019,1.273-1.528,3.142-1.528,5.604,0,2.377.509,4.202,1.528,5.476.976,1.316,2.44,1.974,4.393,1.974,1.358,0,2.483-.339,3.375-1.019.806-.637,1.379-1.655,1.719-3.057h4.394Z" fill="#00216b"/>
        <path d="M35.727,58.751c-.892.468-1.836.753-2.833.859-.998.105-1.878.159-2.642.159-1.528,0-2.865-.414-4.012-1.241-1.146-.828-1.719-2.197-1.719-4.107,0-1.782.519-3.056,1.56-3.82,1.04-.764,2.366-1.273,3.979-1.528.212,0,.467-.031.764-.095.296-.064.637-.117,1.019-.159,1.867-.255,2.801-.807,2.801-1.656,0-.637-.329-1.05-.987-1.241-.659-.191-1.264-.286-1.814-.286-.595,0-1.125.085-1.592.254-.468.171-.807.489-1.019.955h-4.266c.169-1.314.764-2.397,1.783-3.247,1.146-.976,2.779-1.464,4.902-1.464,2.377,0,4.16.403,5.349,1.209,1.23.85,1.847,2.038,1.847,3.566v5.794c0,1.698-.309,3.024-.923,3.979-.616.955-1.348,1.646-2.197,2.069ZM34.708,50.919c-.595.298-1.423.573-2.483.828l-1.464.318c-.764.213-1.316.488-1.656.827-.297.468-.445.935-.445,1.401,0,.637.191,1.146.573,1.528.382.34.933.509,1.656.509,1.188,0,2.122-.339,2.801-1.019.679-.679,1.019-1.612,1.019-2.802v-1.592Z" fill="#00216b"/>
        <path d="M39.483,59.451v-8.214c0-1.655.244-3.045.732-4.17.487-1.125,1.156-2.027,2.005-2.706.806-.637,1.751-1.104,2.833-1.401,1.083-.296,2.197-.445,3.343-.445h.637v4.521h-1.464c-1.232,0-2.144.298-2.738.892-.595.595-.892,1.528-.892,2.802v8.723h-4.457Z" fill="#00216b"/>
        <path d="M53.809,39.649v5.094c.467-.806,1.146-1.465,2.038-1.974.764-.424,1.697-.637,2.802-.637,1.995,0,3.629.827,4.902,2.482,1.273,1.656,1.91,3.8,1.91,6.432s-.637,4.775-1.91,6.431c-.637.807-1.496,1.391-2.579,1.751s-2.155.541-3.215.541c-2.038,0-3.927-.53-5.667-1.592-1.741-1.061-2.61-3.098-2.61-6.112v-14.581h2.165c.594,0,1.103.213,1.528.637.424.425.637.935.637,1.528ZM61.068,50.855c0-1.528-.318-2.716-.955-3.565-.637-.892-1.507-1.337-2.611-1.337-1.188,0-2.101.425-2.738,1.273-.637.891-.955,2.101-.955,3.629,0,1.783.296,3.078.892,3.884.637.892,1.528,1.337,2.674,1.337,1.188,0,2.101-.445,2.738-1.337s.955-2.186.955-3.884Z" fill="#00216b"/>
        <path d="M68.326,57.923c-.891-.764-1.528-1.793-1.91-3.088-.382-1.294-.573-2.643-.573-4.043,0-1.146.159-2.292.478-3.438s.816-2.102,1.496-2.865c1.104-1.273,2.525-2.026,4.266-2.261,1.74-.232,3.311-.095,4.711.414,1.613.637,2.802,1.741,3.566,3.312.721,1.4,1.083,3.035,1.083,4.902,0,1.359-.149,2.526-.446,3.502-.297.977-.68,1.805-1.146,2.483-1.019,1.4-2.314,2.271-3.884,2.61-1.401.382-2.812.414-4.234.096-1.423-.318-2.558-.859-3.407-1.624ZM71.382,46.717c-.891.977-1.295,2.431-1.209,4.361.084,1.933.446,3.279,1.083,4.043.254.341.7.627,1.337.86s1.283.254,1.942.063c.658-.191,1.242-.669,1.751-1.433.509-.765.785-1.995.828-3.693,0-1.528-.245-2.674-.732-3.438-.489-.764-1.051-1.251-1.688-1.464-.637-.212-1.273-.223-1.91-.032-.637.191-1.104.436-1.401.732Z" fill="#00216b"/>
        <path d="M96.915,59.451h-2.229c-.637,0-1.157-.201-1.56-.604-.404-.403-.605-.924-.605-1.561v-8.659c0-1.019-.308-1.761-.923-2.229-.616-.467-1.305-.7-2.069-.7s-1.443.233-2.037.7c-.595.468-.892,1.21-.892,2.229v10.824h-4.457v-9.933c0-2.887.753-4.817,2.26-5.794,1.506-.977,3.173-1.507,4.999-1.592,1.867,0,3.586.488,5.157,1.464,1.57.978,2.356,2.951,2.356,5.922v9.933Z" fill="#00216b"/>
        <path d="M114.361,37.548h3.566l7.959,21.903h-4.775l-1.465-4.521h-8.532l-1.401,4.521h-4.775l7.259-20.438c.382-.977,1.103-1.465,2.165-1.465ZM115.38,41.941l-3.057,9.296h6.113l-3.056-9.296Z" fill="#00216b"/>
        <path d="M141.677,59.451h-2.229c-.637,0-1.157-.201-1.56-.604-.404-.403-.605-.924-.605-1.561v-8.659c0-1.019-.308-1.761-.923-2.229-.616-.467-1.305-.7-2.069-.7s-1.443.233-2.037.7c-.595.468-.892,1.21-.892,2.229v10.824h-4.457v-9.933c0-2.887.753-4.817,2.26-5.794,1.506-.977,3.173-1.507,4.999-1.592,1.867,0,3.586.488,5.157,1.464,1.57.978,2.356,2.951,2.356,5.922v9.933Z" fill="#00216b"/>
        <path d="M153.201,58.751c-.892.468-1.836.753-2.833.859-.998.105-1.878.159-2.642.159-1.528,0-2.865-.414-4.012-1.241-1.146-.828-1.719-2.197-1.719-4.107,0-1.782.519-3.056,1.56-3.82,1.04-.764,2.366-1.273,3.979-1.528.212,0,.467-.031.764-.095.296-.064.637-.117,1.019-.159,1.867-.255,2.801-.807,2.801-1.656,0-.637-.329-1.05-.987-1.241-.659-.191-1.264-.286-1.814-.286-.595,0-1.125.085-1.592.254-.468.171-.807.489-1.019.955h-4.266c.169-1.314.764-2.397,1.783-3.247,1.146-.976,2.779-1.464,4.902-1.464,2.377,0,4.16.403,5.349,1.209,1.23.85,1.847,2.038,1.847,3.566v5.794c0,1.698-.309,3.024-.923,3.979-.616.955-1.348,1.646-2.197,2.069ZM152.183,50.919c-.595.298-1.423.573-2.483.828l-1.464.318c-.764.213-1.316.488-1.656.827-.297.468-.445.935-.445,1.401,0,.637.191,1.146.573,1.528.382.34.933.509,1.656.509,1.188,0,2.122-.339,2.801-1.019.679-.679,1.019-1.612,1.019-2.802v-1.592Z" fill="#00216b"/>
        <path d="M157.148,37.548h2.292c.594,0,1.103.202,1.528.605.424.403.637.902.637,1.496v19.802h-4.457v-21.903Z" fill="#00216b"/>
        <path d="M164.789,65.437v-3.502h1.21c.849,0,1.517-.202,2.005-.605.488-.403.583-1.05.287-1.941l-5.921-16.873h4.903l3.438,11.97,2.993-10.441c.255-1.02.933-1.528,2.038-1.528h3.056l-6.495,19.292c-.509,1.401-1.146,2.398-1.91,2.993-.764.509-2.017.764-3.756.764h-.892c-.127-.043-.287-.074-.478-.096s-.35-.031-.478-.031Z" fill="#00216b"/>
        <path d="M187.074,59.451c-1.401.085-2.919.063-4.552-.063-1.635-.128-2.452-1.167-2.452-3.12v-18.72h2.292c.551,0,1.04.213,1.464.637.424.425.637.935.637,1.528v2.865h2.61v.892c0,.637-.213,1.157-.637,1.56-.425.404-.934.605-1.528.605h-.446v9.423c0,.723.424,1.083,1.273,1.083h1.337v3.311Z" fill="#00216b"/>
        <path d="M187.838,37.548h2.292c.594,0,1.103.213,1.528.637.424.425.637.935.637,1.528v1.337h-4.457v-3.502ZM187.838,42.515h2.292c.594,0,1.103.213,1.528.637.424.425.637.934.637,1.528v14.771h-4.457v-16.937Z" fill="#00216b"/>
        <path d="M205.03,54.23h3.184c-.468,1.782-1.359,3.142-2.674,4.074-1.316.978-2.972,1.465-4.966,1.465-2.419,0-4.309-.785-5.667-2.355-1.359-1.528-2.037-3.714-2.037-6.559,0-2.716.657-4.839,1.974-6.367,1.358-1.57,3.247-2.355,5.667-2.355,2.547,0,4.521.764,5.921,2.292.764.934,1.315,2.017,1.655,3.247h-4.457c-.213-.424-.425-.742-.637-.955-.552-.594-1.337-.892-2.356-.892-.934,0-1.698.298-2.292.892-.764.85-1.146,2.25-1.146,4.202s.382,3.333,1.146,4.139c.551.68,1.379,1.019,2.483,1.019.721,0,1.337-.147,1.846-.445.127-.042.244-.116.35-.223.105-.105.223-.223.351-.351.084-.127.254-.296.509-.509.254-.212.637-.318,1.146-.318Z" fill="#00216b"/>
        <path d="M208.532,53.848h4.33c.042.85.36,1.486.955,1.91.637.425,1.485.637,2.547.637.764,0,1.421-.147,1.974-.445.509-.297.764-.7.764-1.21,0-.764-.892-1.337-2.674-1.719-.764-.128-1.337-.255-1.719-.382-2.25-.552-3.756-1.21-4.521-1.975-.85-.764-1.273-1.782-1.273-3.056,0-1.613.615-2.95,1.847-4.012,1.273-.976,2.929-1.464,4.966-1.464,2.207,0,3.968.488,5.285,1.464,1.23,1.062,1.888,2.441,1.974,4.139h-2.738c-.807,0-1.422-.36-1.846-1.082-.17-.169-.34-.34-.51-.51-.509-.382-1.209-.573-2.101-.573-.85,0-1.486.128-1.91.383-.382.254-.573.637-.573,1.146,0,.68,1.103,1.253,3.311,1.72.255.085.478.148.669.19.191.043.371.063.541.063,2.165.553,3.671,1.189,4.521,1.91.806.765,1.21,1.783,1.21,3.057,0,1.868-.68,3.311-2.038,4.33-1.273.934-3.184,1.4-5.73,1.4-2.419,0-4.224-.487-5.412-1.465-1.231-.976-1.846-2.397-1.846-4.266v-.191Z" fill="#00216b"/>
      </g>
    </g>
  </g>
</svg>
